# xmcd CD database file
# Copyright (C) 1993-1998 Ti Kan
#
# Track frame offsets:
#	182
#	18582
#	35737
#	49650
#	70697
#	83060
#	100022
#	115005
#	132822
#	149407
#	164077
#	184357
#	207097
#	218782
#	234900
#	244895
#	266800
#	282790
#	303815
#
# Disc length: 4315 seconds
#
# Revision: 1
# Processed by: cddbd v1.4b41PL1 Copyright (c) Steve Scherf et al.
# Submitted via: CDValet v3.31 - Copyright (c) 1997 Greg Leichner
#
DISCID=1010d913
DTITLE=John Denver - His Greatest Hits and Finest Performances 
DTITLE=[CD3]
DYEAR=1900
DGENRE=
TTITLE0=San Francisco Mabel Joy
TTITLE1=Whose Garden Was This?
TTITLE2=What One Man Can Do
TTITLE3=Mr. Bojangles
TTITLE4=San Antonio Rose
TTITLE5=Fire and Rain
TTITLE6=The City of New Orleans
TTITLE7=The Night They Drove Old Dixie Down
TTITLE8=Let It Be
TTITLE9=Take Me Home, Country Roads
TTITLE10=Today
TTITLE11=Sweet Surrender
TTITLE12=Grandma's Feather Bed
TTITLE13=Annie's Song
TTITLE14=The Eagle and the Hawk
TTITLE15=My Sweet Lady
TTITLE16=Thank God I'm a Country Boy
TTITLE17=Poems, Prayers and Promises
TTITLE18=Rocky Mountain High
EXTD=
EXTT0=
EXTT1=
EXTT2=
EXTT3=
EXTT4=
EXTT5=
EXTT6=
EXTT7=
EXTT8=
EXTT9=
EXTT10=
EXTT11=
EXTT12=
EXTT13=
EXTT14=
EXTT15=
EXTT16=
EXTT17=
EXTT18=
PLAYORDER=
